<?xml version="1.0" encoding="UTF-8" standalone="no"?>
<svg
   xmlns:dc="http://purl.org/dc/elements/1.1/"
   xmlns:cc="http://creativecommons.org/ns#"
   xmlns:rdf="http://www.w3.org/1999/02/22-rdf-syntax-ns#"
   xmlns:svg="http://www.w3.org/2000/svg"
   xmlns="http://www.w3.org/2000/svg"
   xmlns:sodipodi="http://sodipodi.sourceforge.net/DTD/sodipodi-0.dtd"
   xmlns:inkscape="http://www.inkscape.org/namespaces/inkscape"
   version="1.1"
   width="24"
   height="24"
   viewBox="0 0 24 24"
   id="svg4"
   sodipodi:docname="run.svg"
   inkscape:version="0.92.3 (2405546, 2018-03-11)">
  <metadata
     id="metadata10">
    <rdf:RDF>
      <cc:Work
         rdf:about="">
        <dc:format>image/svg+xml</dc:format>
        <dc:type
           rdf:resource="http://purl.org/dc/dcmitype/StillImage" />
        <dc:title />
      </cc:Work>
    </rdf:RDF>
  </metadata>
  <defs
     id="defs8" />
  <sodipodi:namedview
     pagecolor="#ffffff"
     bordercolor="#666666"
     borderopacity="1"
     objecttolerance="10"
     gridtolerance="10"
     guidetolerance="10"
     inkscape:pageopacity="0"
     inkscape:pageshadow="2"
     inkscape:window-width="1920"
     inkscape:window-height="1017"
     id="namedview6"
     showgrid="false"
     inkscape:zoom="6.9532167"
     inkscape:cx="23.735096"
     inkscape:cy="-7.3326476"
     inkscape:window-x="-8"
     inkscape:window-y="-8"
     inkscape:window-maximized="1"
     inkscape:current-layer="svg4" />
  <rect
     style="opacity:1;fill:#505050;fill-opacity:1;fill-rule:evenodd;stroke:none;stroke-width:26.04913712;stroke-linecap:butt;stroke-linejoin:miter;stroke-miterlimit:4;stroke-dasharray:none;stroke-dashoffset:0;stroke-opacity:1;paint-order:stroke fill markers"
     id="rect814"
     width="24"
     height="24"
     x="0"
     y="0"
     ry="3.1181773e-007" />
  <g
     id="g938"
     transform="translate(0,-1.286129)">
    <path
       inkscape:connector-curvature="0"
       id="path820"
       d="M 4.599609,2.5722575 A 12,12 0 0 0 0,11.999992 12,12 0 0 0 4.267578,21.160148 C 4.470155,20.892865 4.627649,20.685429 4.867187,20.369133 A 11,11 0 0 1 1,11.999992 11,11 0 0 1 5.195312,3.3593665 C 4.962853,3.0524525 4.794032,2.8287375 4.599609,2.5722575 Z m 15.328125,0.439453 c -0.21957,0.290439 -0.348106,0.463342 -0.601562,0.798828 A 11,11 0 0 1 23,11.999992 11,11 0 0 1 19.126953,20.363273 c 0.244786,0.323936 0.404998,0.535766 0.611328,0.808594 A 12,12 0 0 0 24,11.999992 12,12 0 0 0 19.927734,3.0117105 Z M 5.804687,4.1640545 A 10,10 0 0 0 2,11.999992 10,10 0 0 0 5.476562,19.564445 C 5.746204,19.208204 5.789147,19.149517 6.078125,18.76757 A 9,9 0 0 1 3,11.999992 9,9 0 0 1 6.40039,4.9531165 C 6.11709,4.5786995 6.067469,4.5112025 5.804687,4.1640545 Z m 12.917969,0.447265 c -0.279895,0.370661 -0.309618,0.410789 -0.605469,0.802735 A 9,9 0 0 1 21,11.999992 9,9 0 0 1 17.919922,18.763664 c 0.291558,0.386204 0.335491,0.444636 0.607421,0.804687 A 10,10 0 0 0 22,11.999992 10,10 0 0 0 18.722656,4.6113195 Z M 7.007812,5.7578045 A 8,8 0 0 0 4,11.999992 8,8 0 0 0 6.685546,17.964836 c 0.300188,-0.396908 0.30206,-0.400109 0.603516,-0.798828 A 7,7 0 0 1 5,11.999992 7,7 0 0 1 7.609375,6.5527255 C 7.308794,6.1551885 7.305497,6.1513765 7.007812,5.7578045 Z m 10.507813,0.453124 c -0.30391,0.402762 -0.305883,0.406883 -0.607422,0.806641 A 7,7 0 0 1 19,11.999992 7,7 0 0 1 16.714843,17.164055 c 0.301466,0.399606 0.303264,0.402919 0.603516,0.800781 A 8,8 0 0 0 20,11.999992 8,8 0 0 0 17.515625,6.2109285 Z M 11.15039,23.970695 a 12,12 0 0 0 0.84961,0.0293 12,12 0 0 0 0.574218,-0.0293 c -0.709675,-2.95e-4 -0.71703,2e-4 -1.423828,0 z"
       style="opacity:1;fill:#00ffff;fill-opacity:1;fill-rule:evenodd;stroke:none;stroke-width:11.68674946;stroke-linecap:butt;stroke-linejoin:miter;stroke-miterlimit:4;stroke-dasharray:none;stroke-dashoffset:0;stroke-opacity:1;paint-order:stroke fill markers" />
    <path
       style="fill:#00ffff;fill-opacity:1;stroke-width:0.76744187"
       inkscape:connector-curvature="0"
       id="path2"
       d="m 14.722224,7.5390965 c 0.836512,0 1.534883,-0.7060465 1.534883,-1.5348838 0,-0.8595348 -0.698371,-1.5348837 -1.534883,-1.5348837 -0.85186,0 -1.534884,0.6753489 -1.534884,1.5348837 0,0.8288373 0.683024,1.5348838 1.534884,1.5348838 m -2.770465,10.6520925 0.767442,-3.361395 1.619302,1.534884 v 4.604651 h 1.534884 v -5.755814 l -1.619303,-1.534884 0.46814,-2.302325 c 0.99,1.151162 2.524884,1.918604 4.22093,1.918604 v -1.534884 c -1.465814,0 -2.686047,-0.767442 -3.307674,-1.8572081 L 14.868037,8.6902593 c -0.306976,-0.475814 -0.767441,-0.7674418 -1.296975,-0.7674418 -0.237908,0 -0.383722,0.061395 -0.621629,0.061395 L 8.9664101,9.6725851 V 13.29491 h 1.5348839 v -2.62465 l 1.37372,-0.53721 -1.227906,6.231628 -3.7604654,-0.767442 -0.3069768,1.534884 z" />
  </g>
</svg>
